# xmcd
#
# Track frame offsets:
#	150
#	22625
#	37887
#	65065
#	81655
#	101065
#	119820
#	141822
#	172495
#	190630
#	212340
#	236025
#	253588
#	266725
#	283743
#	303155
#
# Disc length: 4303 seconds
#
# Revision: 0
# Processed by: cddbd v1.5.2PL0 Copyright (c) Steve Scherf et al.
# Submitted via: EasyCDDAExtractor 12.0.0.1
#
DISCID=ed10cd10
DTITLE=Fleetwood Mac - Greatest hits live
DYEAR=1971
DGENRE=Rock-Blues
TTITLE0=Oh well
TTITLE1=Black Magic Woman
TTITLE2=World in harmony
TTITLE3=Like it this way
TTITLE4=Only you
TTITLE5=Jumpin' at shadows
TTITLE6=Can't hold on
TTITLE7=Keep a knocking
TTITLE8=Red hot Mama
TTITLE9=Madison Blues
TTITLE10=Sandy Mary
TTITLE11=Stranger Blues
TTITLE12=Great ball of fire
TTITLE13=Got to move
TTITLE14=Oh Baby
TTITLE15=Teenage darling
EXTD=
EXTT0=
EXTT1=
EXTT2=
EXTT3=
EXTT4=
EXTT5=
EXTT6=
EXTT7=
EXTT8=
EXTT9=
EXTT10=
EXTT11=
EXTT12=
EXTT13=
EXTT14=
EXTT15=
PLAYORDER=
